<svg xmlns="http://www.w3.org/2000/svg" width="12.286" height="10.75" viewBox="0 0 12.286 10.75">
  <g id="Grupo_1106324" data-name="Grupo 1106324" transform="translate(-179.91 -3430.393)">
    <path id="alineacion-del-texto" d="M2.768,3h10.75a.768.768,0,0,1,0,1.536H2.768A.768.768,0,1,1,2.768,3Zm0,3.071h7.679a.768.768,0,0,1,0,1.536H2.768a.768.768,0,1,1,0-1.536Zm0,3.071h10.75a.768.768,0,0,1,0,1.536H2.768a.768.768,0,0,1,0-1.536Zm0,3.071h7.679a.768.768,0,0,1,0,1.536H2.768a.768.768,0,0,1,0-1.536Z" transform="translate(177.91 3427.393)" fill="#2fad66"/>
  </g>
</svg>
