<svg xmlns="http://www.w3.org/2000/svg" width="93.966" height="97.283" viewBox="0 0 93.966 97.283">
  <g id="Grupo_1106436" data-name="Grupo 1106436" transform="translate(-753.096 -4065.717)">
    <path id="Rectángulo_403023" data-name="Rectángulo 403023" d="M20,0H73.966a20,20,0,0,1,20,20V97.282a0,0,0,0,1,0,0H0a0,0,0,0,1,0,0V20A20,20,0,0,1,20,0Z" transform="translate(753.096 4065.717)" fill="#ffeb65"/>
    <g id="number-2_17942590" transform="translate(765.573 4089.775)">
      <path id="Trazado_925285" data-name="Trazado 925285" d="M226.227,195.1H175.91a4.64,4.64,0,0,0-4.64,4.64v49.81a4.642,4.642,0,0,0,4.64,4.64h50.317a4.64,4.64,0,0,0,4.64-4.64V199.74a4.64,4.64,0,0,0-4.64-4.64Z" transform="translate(-166.62 -185.616)" fill="#4da2bf"/>
      <path id="Trazado_925286" data-name="Trazado 925286" d="M179.023,156.647v38.627a2.707,2.707,0,0,0,.557,1.652l-7.364,14.247a4.619,4.619,0,0,1-.947-2.808v-49.81a4.64,4.64,0,0,1,4.64-4.64h5.845A2.732,2.732,0,0,0,179.023,156.647Z" transform="translate(-166.62 -149.264)" fill="#bee2eb"/>
      <path id="Trazado_925287" data-name="Trazado 925287" d="M600.264,158.555v49.81a4.616,4.616,0,0,1-1.029,2.914l-7.365-14.248a2.719,2.719,0,0,0,.641-1.757V156.647a2.731,2.731,0,0,0-2.731-2.732h5.844A4.64,4.64,0,0,1,600.264,158.555Z" transform="translate(-536.017 -149.264)" fill="#bee2eb"/>
      <path id="Trazado_925288" data-name="Trazado 925288" d="M236.961,211.279A4.632,4.632,0,0,1,233.35,213H183.033a4.628,4.628,0,0,1-3.693-1.832l7.364-14.247a2.707,2.707,0,0,1-.557-1.652V156.647a2.732,2.732,0,0,1,2.732-2.732h38.628a2.731,2.731,0,0,1,2.731,2.732v38.627a2.719,2.719,0,0,1-.641,1.757l7.365,14.248Z" transform="translate(-173.742 -149.264)" fill="#87c2d6"/>
      <path id="Trazado_925289" data-name="Trazado 925289" d="M281.43,156.647v38.628A2.732,2.732,0,0,1,278.7,198H240.072a2.732,2.732,0,0,1-2.732-2.731V156.647a2.732,2.732,0,0,1,2.732-2.732H278.7A2.731,2.731,0,0,1,281.43,156.647Z" transform="translate(-224.936 -149.264)" fill="#f4f4f4"/>
      <path id="Trazado_925290" data-name="Trazado 925290" d="M191.249,118.931a4.6,4.6,0,0,1,4.64,4.555V178.3a4.48,4.48,0,0,1-1.029,2.86,4.665,4.665,0,0,1-3.611,1.694H140.932a4.658,4.658,0,0,1-3.693-1.8,4.481,4.481,0,0,1-.947-2.757V123.486a4.6,4.6,0,0,1,4.64-4.555Zm0-4.651H140.932a9.259,9.259,0,0,0-9.291,9.205V178.3a9.073,9.073,0,0,0,1.922,5.606,9.309,9.309,0,0,0,7.369,3.6h50.317a9.292,9.292,0,0,0,7.2-3.389,9.172,9.172,0,0,0,2.09-5.816V123.486A9.259,9.259,0,0,0,191.249,114.281Z" transform="translate(-131.642 -114.281)" fill="#0b0f33"/>
      <path id="Trazado_925291" data-name="Trazado 925291" d="M677.947,152.966l.026-.126" transform="translate(-613.837 -148.315)" fill="#fff"/>
      <path id="Trazado_925292" data-name="Trazado 925292" d="M335.157,225.819a4.138,4.138,0,0,0,4.125-4.125V210.564a4.138,4.138,0,0,0-4.125-4.125h-18.5a2.835,2.835,0,0,0-2.826,2.826v2.377a2.835,2.835,0,0,0,2.826,2.826H329.1v3.367H318.909a5.993,5.993,0,0,0-5.975,5.975v7.918a6.492,6.492,0,0,0,6.473,6.473h17.341a2.542,2.542,0,0,0,2.535-2.535V232a2.542,2.542,0,0,0-2.535-2.535H321.563v-3.651h13.594Z" transform="translate(-291.659 -195.624)" fill="#3d6685"/>
    </g>
  </g>
</svg>
