<svg xmlns="http://www.w3.org/2000/svg" width="109" height="118.999" viewBox="0 0 109 118.999">
  <g id="Grupo_1106323" data-name="Grupo 1106323" transform="translate(-1261.333 -411.118)">
    <g id="Grupo_1101602" data-name="Grupo 1101602" transform="translate(12054.333 12329.869)">
      <circle id="Elipse_11575" data-name="Elipse 11575" cx="54.5" cy="54.5" r="54.5" transform="translate(-10793 -11908.752)" fill="#ffeb65"/>
      <g id="Grupo_1101596" data-name="Grupo 1101596" transform="translate(-10781.517 -11918.751)">
        <path id="Trazado_912618" data-name="Trazado 912618" d="M249.375,114.726h16.452V93.646H249.375Zm9.861-5.141a1.63,1.63,0,0,1-3.26,0v-10.8a1.63,1.63,0,0,1,3.26,0Z" transform="translate(-214.585 2.648)" fill="#7466ae"/>
        <path id="Trazado_912619" data-name="Trazado 912619" d="M298.758,104.836h-80.4a2.817,2.817,0,0,1-2.816-2.817V44.671a2.817,2.817,0,0,1,2.816-2.817h80.4a2.818,2.818,0,0,1,2.818,2.817v57.347a2.818,2.818,0,0,1-2.818,2.817" transform="translate(-215.542 1.184)" fill="#7466ae"/>
        <rect id="Rectángulo_403241" data-name="Rectángulo 403241" width="82.091" height="53.32" transform="translate(1.971 44.881)" fill="#8effbf"/>
        <path id="Trazado_912620" data-name="Trazado 912620" d="M289.417,96.967l3.6-53.32h-5.141Z" transform="translate(-213.497 1.234)" fill="#8cdeff"/>
        <rect id="Rectángulo_403242" data-name="Rectángulo 403242" width="64.782" height="92.545" transform="translate(11.139 5.655)" fill="#f8f8f8"/>
        <rect id="Rectángulo_403243" data-name="Rectángulo 403243" width="58.27" height="22.794" transform="translate(14.395 9.255)" fill="#8cdeff"/>
        <g id="Grupo_1101599" data-name="Grupo 1101599" transform="translate(14.396 35.133)">
          <rect id="Rectángulo_403244" data-name="Rectángulo 403244" width="35.476" height="1.371" fill="#7466ae"/>
          <rect id="Rectángulo_403245" data-name="Rectángulo 403245" width="35.476" height="1.371" transform="translate(0 4.847)" fill="#7466ae"/>
          <rect id="Rectángulo_403246" data-name="Rectángulo 403246" width="35.476" height="1.371" transform="translate(0 9.693)" fill="#7466ae"/>
          <rect id="Rectángulo_403247" data-name="Rectángulo 403247" width="35.476" height="1.371" transform="translate(0 14.541)" fill="#7466ae"/>
          <rect id="Rectángulo_403248" data-name="Rectángulo 403248" width="35.476" height="1.371" transform="translate(0 19.388)" fill="#7466ae"/>
          <rect id="Rectángulo_403249" data-name="Rectángulo 403249" width="35.476" height="1.371" transform="translate(0 24.235)" fill="#7466ae"/>
          <rect id="Rectángulo_403250" data-name="Rectángulo 403250" width="35.476" height="1.371" transform="translate(0 29.081)" fill="#7466ae"/>
          <rect id="Rectángulo_403251" data-name="Rectángulo 403251" width="35.476" height="1.371" transform="translate(0 33.928)" fill="#7466ae"/>
          <rect id="Rectángulo_403252" data-name="Rectángulo 403252" width="35.476" height="1.371" transform="translate(0 38.774)" fill="#7466ae"/>
          <rect id="Rectángulo_403253" data-name="Rectángulo 403253" width="35.476" height="1.371" transform="translate(0 43.622)" fill="#7466ae"/>
          <rect id="Rectángulo_403254" data-name="Rectángulo 403254" width="35.476" height="1.371" transform="translate(0 48.469)" fill="#7466ae"/>
          <rect id="Rectángulo_403255" data-name="Rectángulo 403255" width="35.476" height="1.371" transform="translate(0 53.315)" fill="#7466ae"/>
          <rect id="Rectángulo_403256" data-name="Rectángulo 403256" width="35.476" height="1.371" transform="translate(0 58.163)" fill="#7466ae"/>
        </g>
        <rect id="Rectángulo_403257" data-name="Rectángulo 403257" width="20.051" height="26.564" transform="translate(52.613 35.133)" fill="#8cdeff"/>
        <rect id="Rectángulo_403258" data-name="Rectángulo 403258" width="64.782" height="5.656" transform="translate(11.139)" fill="#2fad66"/>
        <path id="Trazado_912621" data-name="Trazado 912621" d="M270.71,3.642H245.774a.867.867,0,1,1,0-1.735H270.71a.867.867,0,1,1,0,1.735" transform="translate(-214.712 0.054)" fill="#7466ae"/>
        <rect id="Rectángulo_403259" data-name="Rectángulo 403259" width="41.645" height="1.542" transform="translate(22.193 117.375)" fill="#7466ae"/>
      </g>
    </g>
  </g>
</svg>
