<svg xmlns="http://www.w3.org/2000/svg" width="138.667" height="123.865" viewBox="0 0 138.667 123.865">
  <g id="Grupo_1106322" data-name="Grupo 1106322" transform="translate(-1266 -183.135)">
    <g id="Grupo_1101603" data-name="Grupo 1101603" transform="translate(12319 12252.135)">
      <circle id="Elipse_11574" data-name="Elipse 11574" cx="60.5" cy="60.5" r="60.5" transform="translate(-11053 -12066.135)" fill="#ffeb65"/>
      <g id="Grupo_1101595" data-name="Grupo 1101595" transform="translate(-11044.95 -12069)">
        <rect id="Rectángulo_403222" data-name="Rectángulo 403222" width="115.422" height="68.246" transform="translate(7.598 46.1)" fill="#7466ae"/>
        <path id="Trazado_912613" data-name="Trazado 912613" d="M124.8,136.341H5.82A5.82,5.82,0,0,1,0,130.521H130.617a5.82,5.82,0,0,1-5.82,5.82" transform="translate(0 -16.176)" fill="#7466ae"/>
        <rect id="Rectángulo_403223" data-name="Rectángulo 403223" width="38.151" height="1.401" transform="translate(46.233 116.556)" fill="#8cdeff"/>
        <rect id="Rectángulo_403224" data-name="Rectángulo 403224" width="109.279" height="58.519" transform="translate(10.669 48.93)" fill="#8effbf"/>
        <path id="Trazado_912614" data-name="Trazado 912614" d="M76.517,138.457l9.107-58.519H73.5Z" transform="translate(21.554 -31.009)" fill="#8cdeff"/>
        <rect id="Rectángulo_403225" data-name="Rectángulo 403225" width="65.525" height="100.873" transform="translate(32.546 6.576)" fill="#f8f8f8"/>
        <rect id="Rectángulo_403226" data-name="Rectángulo 403226" width="65.525" height="6.574" transform="translate(32.546)" fill="#2fad66"/>
        <path id="Trazado_912615" data-name="Trazado 912615" d="M29.562,44.927a1.24,1.24,0,1,1-1.239-1.239,1.239,1.239,0,0,1,1.239,1.239" transform="translate(7.942 -41.639)" fill="#7466ae"/>
        <path id="Trazado_912616" data-name="Trazado 912616" d="M33.145,44.927a1.24,1.24,0,1,1-1.239-1.239,1.239,1.239,0,0,1,1.239,1.239" transform="translate(8.992 -41.639)" fill="#7466ae"/>
        <path id="Trazado_912617" data-name="Trazado 912617" d="M36.729,44.927a1.24,1.24,0,1,1-1.239-1.239,1.239,1.239,0,0,1,1.239,1.239" transform="translate(10.044 -41.639)" fill="#7466ae"/>
        <rect id="Rectángulo_403227" data-name="Rectángulo 403227" width="57.28" height="21.769" transform="translate(36.264 10.995)" fill="#8cdeff"/>
        <g id="Grupo_1101598" data-name="Grupo 1101598" transform="translate(37.504 37.291)">
          <rect id="Rectángulo_403228" data-name="Rectángulo 403228" width="35.133" height="1.94" fill="#7466ae"/>
          <rect id="Rectángulo_403229" data-name="Rectángulo 403229" width="35.133" height="1.94" transform="translate(0 5.663)" fill="#7466ae"/>
          <rect id="Rectángulo_403230" data-name="Rectángulo 403230" width="35.133" height="1.94" transform="translate(0 11.325)" fill="#7466ae"/>
          <rect id="Rectángulo_403231" data-name="Rectángulo 403231" width="35.133" height="1.94" transform="translate(0 16.988)" fill="#7466ae"/>
          <rect id="Rectángulo_403232" data-name="Rectángulo 403232" width="35.133" height="1.94" transform="translate(0 22.651)" fill="#7466ae"/>
          <rect id="Rectángulo_403233" data-name="Rectángulo 403233" width="35.133" height="1.94" transform="translate(0 28.314)" fill="#7466ae"/>
          <rect id="Rectángulo_403234" data-name="Rectángulo 403234" width="35.133" height="1.94" transform="translate(0 33.975)" fill="#7466ae"/>
          <rect id="Rectángulo_403235" data-name="Rectángulo 403235" width="35.133" height="1.94" transform="translate(0 39.638)" fill="#7466ae"/>
          <rect id="Rectángulo_403236" data-name="Rectángulo 403236" width="35.133" height="1.94" transform="translate(0 45.301)" fill="#7466ae"/>
          <rect id="Rectángulo_403237" data-name="Rectángulo 403237" width="35.133" height="1.94" transform="translate(0 50.964)" fill="#7466ae"/>
          <rect id="Rectángulo_403238" data-name="Rectángulo 403238" width="35.133" height="1.94" transform="translate(0 56.627)" fill="#7466ae"/>
          <rect id="Rectángulo_403239" data-name="Rectángulo 403239" width="35.133" height="1.94" transform="translate(0 62.289)" fill="#7466ae"/>
        </g>
        <rect id="Rectángulo_403240" data-name="Rectángulo 403240" width="17.566" height="21.716" transform="translate(75.978 37.288)" fill="#8cdeff"/>
      </g>
    </g>
  </g>
</svg>
