<svg xmlns="http://www.w3.org/2000/svg" width="110" height="124.5" viewBox="0 0 110 124.5">
  <g id="Grupo_1106324" data-name="Grupo 1106324" transform="translate(-850.333 -272.336)">
    <g id="Grupo_1101601" data-name="Grupo 1101601" transform="translate(11596.333 12400.336)">
      <circle id="Elipse_11576" data-name="Elipse 11576" cx="55" cy="55" r="55" transform="translate(-10746 -12113.5)" fill="#ffeb65"/>
      <g id="Grupo_1101597" data-name="Grupo 1101597" transform="translate(-10724.8 -12128)">
        <path id="Trazado_912610" data-name="Trazado 912610" d="M391.84,147.96H338.371a6.83,6.83,0,0,1-6.83-6.83V64.83a6.83,6.83,0,0,1,6.83-6.83H391.84a6.829,6.829,0,0,1,6.83,6.83v76.3a6.829,6.829,0,0,1-6.83,6.83" transform="translate(-331.541 -23.46)" fill="#7466ae"/>
        <path id="Trazado_912611" data-name="Trazado 912611" d="M396.617,64.693v76.023a5.072,5.072,0,0,1-5.07,5.07h-53.4a5.072,5.072,0,0,1-5.07-5.07V64.693a5.072,5.072,0,0,1,5.07-5.07h53.4a4.986,4.986,0,0,1,2.951.948,5.057,5.057,0,0,1,2.119,4.121" transform="translate(-331.279 -23.182)" fill="#8effbf"/>
        <path id="Trazado_912612" data-name="Trazado 912612" d="M386.82,60.571l-2.143,78.915-6.662-79.864h5.854a4.986,4.986,0,0,1,2.951.948" transform="translate(-323.601 -23.182)" fill="#8cdeff"/>
        <rect id="Rectángulo_403198" data-name="Rectángulo 403198" width="55.03" height="116.207" transform="translate(6.05 0.098)" fill="#f8f8f8"/>
        <text id="T" transform="translate(10.538 11)" fill="#7466ae" font-size="11" font-family="Montserrat-Bold, Montserrat" font-weight="700"><tspan x="0" y="0">T</tspan></text>
        <rect id="Rectángulo_403200" data-name="Rectángulo 403200" width="34.93" height="9.757" transform="translate(22.052 4.294)" fill="#8effbf"/>
        <g id="Grupo_1101600" data-name="Grupo 1101600" transform="translate(10.538 18.148)">
          <rect id="Rectángulo_403201" data-name="Rectángulo 403201" width="46.444" height="1.366" fill="#7466ae"/>
          <rect id="Rectángulo_403202" data-name="Rectángulo 403202" width="46.444" height="1.366" transform="translate(0 4.567)" fill="#7466ae"/>
          <rect id="Rectángulo_403203" data-name="Rectángulo 403203" width="46.444" height="1.366" transform="translate(0 9.132)" fill="#7466ae"/>
          <rect id="Rectángulo_403204" data-name="Rectángulo 403204" width="46.444" height="1.366" transform="translate(0 13.699)" fill="#7466ae"/>
          <rect id="Rectángulo_403205" data-name="Rectángulo 403205" width="46.444" height="1.366" transform="translate(0 18.265)" fill="#7466ae"/>
          <rect id="Rectángulo_403206" data-name="Rectángulo 403206" width="46.444" height="1.366" transform="translate(0 22.832)" fill="#7466ae"/>
          <rect id="Rectángulo_403207" data-name="Rectángulo 403207" width="46.444" height="1.366" transform="translate(0 27.398)" fill="#7466ae"/>
          <rect id="Rectángulo_403208" data-name="Rectángulo 403208" width="46.444" height="1.366" transform="translate(0 31.964)" fill="#7466ae"/>
          <rect id="Rectángulo_403209" data-name="Rectángulo 403209" width="46.444" height="1.366" transform="translate(0 36.531)" fill="#7466ae"/>
          <rect id="Rectángulo_403210" data-name="Rectángulo 403210" width="46.444" height="1.366" transform="translate(0 41.096)" fill="#7466ae"/>
          <rect id="Rectángulo_403211" data-name="Rectángulo 403211" width="46.444" height="1.366" transform="translate(0 45.663)" fill="#7466ae"/>
          <rect id="Rectángulo_403212" data-name="Rectángulo 403212" width="46.444" height="1.366" transform="translate(0 50.23)" fill="#7466ae"/>
          <rect id="Rectángulo_403213" data-name="Rectángulo 403213" width="46.444" height="1.366" transform="translate(0 54.796)" fill="#7466ae"/>
          <rect id="Rectángulo_403214" data-name="Rectángulo 403214" width="46.444" height="1.366" transform="translate(0 59.362)" fill="#7466ae"/>
          <rect id="Rectángulo_403215" data-name="Rectángulo 403215" width="46.444" height="1.366" transform="translate(0 63.928)" fill="#7466ae"/>
          <rect id="Rectángulo_403216" data-name="Rectángulo 403216" width="46.444" height="1.366" transform="translate(0 68.495)" fill="#7466ae"/>
          <rect id="Rectángulo_403217" data-name="Rectángulo 403217" width="46.444" height="1.366" transform="translate(0 73.061)" fill="#7466ae"/>
          <rect id="Rectángulo_403218" data-name="Rectángulo 403218" width="46.444" height="1.366" transform="translate(0 77.627)" fill="#7466ae"/>
          <rect id="Rectángulo_403219" data-name="Rectángulo 403219" width="46.444" height="1.366" transform="translate(0 82.194)" fill="#7466ae"/>
          <rect id="Rectángulo_403220" data-name="Rectángulo 403220" width="46.444" height="1.366" transform="translate(0 86.76)" fill="#7466ae"/>
          <rect id="Rectángulo_403221" data-name="Rectángulo 403221" width="46.444" height="1.366" transform="translate(0 91.326)" fill="#7466ae"/>
        </g>
      </g>
    </g>
  </g>
</svg>
