<svg xmlns="http://www.w3.org/2000/svg" width="620" height="428.19" viewBox="0 0 620 428.19">
  <g id="Grupo_1106456" data-name="Grupo 1106456" transform="translate(-800 -987)">
    <rect id="BG" width="619.999" height="428.19" transform="translate(800 987)" fill="#8effbf"/>
    <path id="Trazado_911978" data-name="Trazado 911978" d="M0,404.608H315V145.558c-9.534-5.931-19.365-11.14-29.544-13.533a46.948,46.948,0,0,0-20.254-.532c-26,5.227-41,39.578-27.165,62.2,14.476,23.67,49.46,28.807,62.772,53.151a37.562,37.562,0,0,1,4.081,11.813c3.516,20.773-9.756,43.966-29.106,54.244a69.227,69.227,0,0,1-9.245,4.063,76.677,76.677,0,0,1-12.359,3.245c-17.953,3.188-37.254.533-55.021-4.563C178.073,309.6,157.958,300.4,137,294.048c-4.081-1.246-8.193-2.375-12.355-3.355-25.513-6-54.371-5.475-75.505,10.022C17.69,323.773,15.474,368.3,0,404.608" transform="translate(1105 1010.031)" fill="#2fad66"/>
  </g>
</svg>
