<svg xmlns="http://www.w3.org/2000/svg" xmlns:xlink="http://www.w3.org/1999/xlink" width="331.729" height="335.136" viewBox="0 0 331.729 335.136">
  <defs>
    <clipPath id="clip-path">
      <rect id="Rect치ngulo_404922" data-name="Rect치ngulo 404922" width="331.729" height="335.136" fill="none"/>
    </clipPath>
  </defs>
  <g id="Grupo_1106456" data-name="Grupo 1106456" transform="translate(-1046.13 -1040.266)">
    <g id="Grupo_1106372" data-name="Grupo 1106372" transform="translate(1046.13 1040.266)">
      <g id="Grupo_1106372-2" data-name="Grupo 1106372" clip-path="url(#clip-path)">
        <path id="Trazado_925271" data-name="Trazado 925271" d="M32.214,0h267.3a32.144,32.144,0,0,1,32.214,32.214V302.922a32.144,32.144,0,0,1-32.214,32.215H32.214A32.143,32.143,0,0,1,0,302.922V32.214A32.143,32.143,0,0,1,32.214,0" fill="#333"/>
        <path id="Trazado_925272" data-name="Trazado 925272" d="M55.563,0A32.265,32.265,0,0,0,42.916,2.563L189.2,111.923l146.3-109.36A32.263,32.263,0,0,0,322.864,0Z" transform="translate(-23.351 0)" fill="#666"/>
        <path id="Trazado_925273" data-name="Trazado 925273" d="M174.092,245.5,15.14,456.428a32.091,32.091,0,0,0,25.31,12.286h267.3a32.1,32.1,0,0,0,25.314-12.286Z" transform="translate(-8.238 -133.578)"/>
        <path id="Trazado_925274" data-name="Trazado 925274" d="M142.916,23.554S181.321,25.7,226.1,25.7s83.18-2.148,83.18-2.148a32.143,32.143,0,0,1,32.214,32.214V251.312a32.143,32.143,0,0,1-32.214,32.214s-36.438,2.147-83.18,2.147-83.182-2.147-83.182-2.147A32.143,32.143,0,0,1,110.7,251.312V55.768a32.143,32.143,0,0,1,32.214-32.214" transform="translate(-60.233 -12.816)" fill="#4d4d4d"/>
        <path id="Trazado_925275" data-name="Trazado 925275" d="M149.848,81.914v46.119h6.1v-18.75h11.828q9.784,0,13.528-4.06a14.227,14.227,0,0,0,3.742-9.97,14,14,0,0,0-1.414-6.292,11.077,11.077,0,0,0-3.683-4.438,13.745,13.745,0,0,0-5.692-2.168,41.978,41.978,0,0,0-7.018-.441Zm63.862,6.51h5.663v-6.51H213.71Zm56.844-5.474-5.629,3.4v8.276h-4.153v4.4h4.153v19.219q0,5.1.692,6.7a5.473,5.473,0,0,0,2.391,2.546,9.686,9.686,0,0,0,4.782.977,21.014,21.014,0,0,0,4.279-.5l-.818-5a18.511,18.511,0,0,1-2.487.222,3.857,3.857,0,0,1-1.951-.411,2.467,2.467,0,0,1-.973-1.1,10.363,10.363,0,0,1-.285-3.117V99.028h5.7v-4.4h-5.7Zm-114.6,4.4h11.795a26.07,26.07,0,0,1,5.7.411A6.742,6.742,0,0,1,177.28,90.5a8.2,8.2,0,0,1,1.477,4.941,7.841,7.841,0,0,1-2.483,6.2q-2.485,2.2-8.4,2.2H155.951Zm48.476,6.514A6.362,6.362,0,0,0,200.778,95a13.942,13.942,0,0,0-3.586,4.686V94.623h-5.1v33.409h5.663V110.542a22.056,22.056,0,0,1,.944-6.606,5.967,5.967,0,0,1,2.11-3.083,5.343,5.343,0,0,1,3.334-1.132,8.1,8.1,0,0,1,4.153,1.225l1.95-5.252a11.052,11.052,0,0,0-5.822-1.824m39.324,0a12.009,12.009,0,0,0-10.633,5.5V94.623h-5.1v33.409h5.663V109.787q0-6.418,2.613-8.716a9.225,9.225,0,0,1,6.259-2.295,7.289,7.289,0,0,1,3.934,1.036,5.342,5.342,0,0,1,2.357,2.739,15.1,15.1,0,0,1,.662,5.159v20.322h5.663V107.488a32.6,32.6,0,0,0-.315-5.5A10.938,10.938,0,0,0,253.1,97.8a8.63,8.63,0,0,0-3.809-2.831,13.666,13.666,0,0,0-5.537-1.1M213.71,128.033h5.663V94.623H213.71Zm-47.944,17.521a21.966,21.966,0,0,0-8.465,1.573,12.244,12.244,0,0,0-5.789,4.626,11.638,11.638,0,0,0-1.979,6.51,10.685,10.685,0,0,0,1.6,5.759,12.671,12.671,0,0,0,4.941,4.279,42.346,42.346,0,0,0,8.9,2.894,80.048,80.048,0,0,1,8.213,2.232,9.25,9.25,0,0,1,4.152,2.739,5.937,5.937,0,0,1,1.258,3.775,6.619,6.619,0,0,1-1.321,3.964,8.5,8.5,0,0,1-3.964,2.832,16.975,16.975,0,0,1-6.166,1.036,17.753,17.753,0,0,1-7.081-1.351,10.648,10.648,0,0,1-4.656-3.586,12.964,12.964,0,0,1-1.887-5.7l-5.755.5a15.732,15.732,0,0,0,2.517,8.306,14.835,14.835,0,0,0,6.636,5.474,26.652,26.652,0,0,0,10.507,1.825,21.148,21.148,0,0,0,8.871-1.791,14.013,14.013,0,0,0,6.074-5.067,12.613,12.613,0,0,0,2.106-6.951,11.382,11.382,0,0,0-1.917-6.543,13.933,13.933,0,0,0-5.948-4.719,60.187,60.187,0,0,0-10.223-2.928q-7.424-1.7-9.186-3.3a5.247,5.247,0,0,1-1.8-4.09,6.058,6.058,0,0,1,2.517-4.878q2.548-2.045,8.087-2.043,5.317,0,8.02,2.232a9.41,9.41,0,0,1,3.209,6.606l5.852-.44a13.973,13.973,0,0,0-2.265-7.265,12.941,12.941,0,0,0-6.04-4.845,22.8,22.8,0,0,0-9.027-1.669m39.89,12.743a16.182,16.182,0,0,0-7.991,2.043,12.449,12.449,0,0,0-5.445,6.073,23.249,23.249,0,0,0-1.791,9.467q0,8.368,4.153,12.869a14.416,14.416,0,0,0,11.04,4.467,13.6,13.6,0,0,0,9.22-3.243,14.467,14.467,0,0,0,4.685-9.026l-5.566-.726a10.146,10.146,0,0,1-2.832,6.292,7.941,7.941,0,0,1-5.57,2.047,8.4,8.4,0,0,1-6.732-3.054q-2.579-3.052-2.58-9.782,0-6.638,2.677-9.69a8.765,8.765,0,0,1,6.95-3.083,7.149,7.149,0,0,1,4.815,1.7,9.085,9.085,0,0,1,2.8,5.063l5.508-.847a12.557,12.557,0,0,0-4.438-7.8,13.8,13.8,0,0,0-8.9-2.768m30.985,0a6.362,6.362,0,0,0-3.649,1.132,13.942,13.942,0,0,0-3.586,4.686v-5.063h-5.1v33.409h5.663V174.97a22.056,22.056,0,0,1,.944-6.606,5.968,5.968,0,0,1,2.11-3.083,5.343,5.343,0,0,1,3.334-1.132,8.1,8.1,0,0,1,4.153,1.225l1.95-5.252a11.052,11.052,0,0,0-5.822-1.825m22.965,0a14.7,14.7,0,0,0-11.263,4.656Q244,167.608,244,176.04q0,8.148,4.278,12.676,4.31,4.5,11.64,4.5a15.416,15.416,0,0,0,9.564-2.832,14.284,14.284,0,0,0,5.13-7.961l-5.851-.721a10.861,10.861,0,0,1-3.494,5.222,8.659,8.659,0,0,1-5.314,1.636,9.271,9.271,0,0,1-6.984-2.928q-2.8-2.926-3.117-8.431H274.77c.021-.671.033-1.174.033-1.51q0-8.274-4.249-12.835a14.282,14.282,0,0,0-10.947-4.559m35.863,0a14.7,14.7,0,0,0-11.262,4.656q-4.341,4.656-4.341,13.087,0,8.148,4.278,12.676,4.309,4.5,11.64,4.5a15.415,15.415,0,0,0,9.563-2.832,14.283,14.283,0,0,0,5.13-7.961l-5.851-.721a10.86,10.86,0,0,1-3.49,5.222,8.659,8.659,0,0,1-5.314,1.636,9.282,9.282,0,0,1-6.988-2.928q-2.8-2.926-3.112-8.431h24.916c.02-.671.033-1.174.033-1.51q0-8.274-4.249-12.835a14.283,14.283,0,0,0-10.948-4.559Zm37.877,0a12.008,12.008,0,0,0-10.633,5.5v-4.748h-5.1v33.409h5.663V174.215q0-6.418,2.613-8.716a9.224,9.224,0,0,1,6.259-2.295,7.29,7.29,0,0,1,3.934,1.036,5.338,5.338,0,0,1,2.357,2.739,15.1,15.1,0,0,1,.663,5.159v20.322h5.663V171.917a32.642,32.642,0,0,0-.315-5.5,10.936,10.936,0,0,0-1.762-4.186,8.628,8.628,0,0,0-3.809-2.831,13.655,13.655,0,0,0-5.536-1.1m-73.677,4.656a8.682,8.682,0,0,1,7.017,3.272,11.312,11.312,0,0,1,2.139,6.321H250.168a10.372,10.372,0,0,1,2.928-6.984,9.041,9.041,0,0,1,6.573-2.609m35.863,0a8.684,8.684,0,0,1,7.018,3.272,11.313,11.313,0,0,1,2.139,6.321H286.032a10.372,10.372,0,0,1,2.928-6.984,9.042,9.042,0,0,1,6.573-2.609" transform="translate(-80.403 -44.57)" fill="#fff"/>
        <path id="Trazado_925276" data-name="Trazado 925276" d="M162.242,409.936a21.953,21.953,0,0,0-8.461,1.573,12.241,12.241,0,0,0-5.788,4.626,11.643,11.643,0,0,0-1.984,6.51,10.689,10.689,0,0,0,1.607,5.759,12.657,12.657,0,0,0,4.937,4.279,42.4,42.4,0,0,0,8.905,2.894,79.776,79.776,0,0,1,8.208,2.232,9.249,9.249,0,0,1,4.153,2.739,5.937,5.937,0,0,1,1.259,3.775,6.62,6.62,0,0,1-1.322,3.964,8.5,8.5,0,0,1-3.964,2.831,16.971,16.971,0,0,1-6.166,1.036,17.742,17.742,0,0,1-7.076-1.35,10.657,10.657,0,0,1-4.656-3.587,12.965,12.965,0,0,1-1.887-5.7l-5.759.5a15.727,15.727,0,0,0,2.517,8.305,14.847,14.847,0,0,0,6.64,5.474,26.655,26.655,0,0,0,10.507,1.825,21.144,21.144,0,0,0,8.872-1.791,14,14,0,0,0,6.069-5.067,12.618,12.618,0,0,0,2.11-6.951,11.384,11.384,0,0,0-1.921-6.543,13.919,13.919,0,0,0-5.944-4.719,60.266,60.266,0,0,0-10.226-2.928q-7.425-1.7-9.186-3.3a5.243,5.243,0,0,1-1.791-4.09,6.059,6.059,0,0,1,2.517-4.878q2.548-2.045,8.083-2.043,5.317,0,8.024,2.232a9.413,9.413,0,0,1,3.209,6.606l5.851-.44a13.971,13.971,0,0,0-2.265-7.265,12.941,12.941,0,0,0-6.04-4.845,22.82,22.82,0,0,0-9.031-1.669m109.511.788v46.119h6.1V436.362h7.076a18.3,18.3,0,0,1,3.4.222,8.966,8.966,0,0,1,2.768,1.225,13.641,13.641,0,0,1,3.117,3.083q1.73,2.2,4.4,6.354l6.1,9.6H312.4l-8.024-12.554a31.693,31.693,0,0,0-5.063-6.133,15.861,15.861,0,0,0-3.683-2.3q6.638-.913,9.815-4.279a11.6,11.6,0,0,0,3.179-8.272,13.1,13.1,0,0,0-1.921-6.954,10.163,10.163,0,0,0-5.126-4.371,26.9,26.9,0,0,0-9.375-1.258Zm6.1,5.1h14.6q5.128,0,7.487,2.106a6.855,6.855,0,0,1,2.391,5.381,7.568,7.568,0,0,1-1.229,4.153,7.071,7.071,0,0,1-3.586,2.768,20.021,20.021,0,0,1-6.543.848H277.857Zm-46.027,6.858a16.928,16.928,0,0,0-4.908.692,11.437,11.437,0,0,0-3.586,1.636,9.264,9.264,0,0,0-2.8,3.175,8.422,8.422,0,0,0,3.867,11.8,55.05,55.05,0,0,0,8.653,2.705,24.583,24.583,0,0,1,5.789,1.917,3.437,3.437,0,0,1,1.665,3.02,4.8,4.8,0,0,1-1.887,3.746q-1.887,1.573-5.789,1.573a9.222,9.222,0,0,1-6.04-1.8,7.857,7.857,0,0,1-2.609-5.159l-5.6.881a12.619,12.619,0,0,0,4.341,8.024q3.43,2.705,9.941,2.706a17.524,17.524,0,0,0,7.047-1.355,10.7,10.7,0,0,0,4.748-3.867,9.521,9.521,0,0,0,1.669-5.348,8.3,8.3,0,0,0-1.355-4.845,8.384,8.384,0,0,0-3.742-2.957,65.956,65.956,0,0,0-8.368-2.643q-4.152-1.132-5-1.447a4.988,4.988,0,0,1-2.168-1.51,3.132,3.132,0,0,1-.692-1.984,3.752,3.752,0,0,1,1.665-3.02q1.668-1.29,5.571-1.288a7.93,7.93,0,0,1,5.1,1.447,6.03,6.03,0,0,1,2.2,4.027l5.537-.755a11.855,11.855,0,0,0-1.951-5.159,9.335,9.335,0,0,0-4.4-3.083,19.221,19.221,0,0,0-6.892-1.133m97.775,0a13.541,13.541,0,0,0-7.3,2.077,13.047,13.047,0,0,0-5.063,6.04,22.5,22.5,0,0,0-1.732,9.027q0,8.274,4.279,13.024a13.4,13.4,0,0,0,10.256,4.753,10.763,10.763,0,0,0,5.033-1.229,10.1,10.1,0,0,0,3.712-3.083v16.359h5.662V423.434h-5.1V427.9a11.188,11.188,0,0,0-9.753-5.222m-144.174.755,12.676,33.473q-.349.912-.5,1.384a27.882,27.882,0,0,1-1.728,4.215,5.145,5.145,0,0,1-1.858,1.762,6.216,6.216,0,0,1-3.02.63,12.6,12.6,0,0,1-3.238-.5l.629,5.314a11.341,11.341,0,0,0,3.649.692,8.1,8.1,0,0,0,4.656-1.321,11.031,11.031,0,0,0,3.461-4.09,66.7,66.7,0,0,0,3.175-7.579l12.71-33.976h-5.663l-7.139,19.471a76.163,76.163,0,0,0-2.328,7.613q-1.07-4.059-2.424-7.739l-6.95-19.345Zm144.711,3.712a8.109,8.109,0,0,1,6.447,3.364q2.769,3.366,2.769,10.037,0,6.261-2.609,9.341a7.95,7.95,0,0,1-6.229,3.054,8.217,8.217,0,0,1-6.481-3.209q-2.706-3.24-2.706-9.689,0-6.638,2.547-9.753a7.836,7.836,0,0,1,6.262-3.146" transform="translate(-78.486 -223.048)" fill="#fff"/>
        <rect id="Rect치ngulo_404921" data-name="Rect치ngulo 404921" width="178.522" height="5.369" transform="translate(76.603 165.084)" fill="#fff"/>
      </g>
    </g>
  </g>
</svg>
