<svg xmlns="http://www.w3.org/2000/svg" width="93.966" height="97.283" viewBox="0 0 93.966 97.283">
  <g id="Grupo_1106437" data-name="Grupo 1106437" transform="translate(-1173.096 -4065.717)">
    <path id="Rectángulo_403023" data-name="Rectángulo 403023" d="M20,0H73.966a20,20,0,0,1,20,20V97.282a0,0,0,0,1,0,0H0a0,0,0,0,1,0,0V20A20,20,0,0,1,20,0Z" transform="translate(1173.096 4065.717)" fill="#ffeb65"/>
    <g id="number-3_17942592" transform="translate(1185.63 4089.775)">
      <path id="Trazado_925277" data-name="Trazado 925277" d="M226.227,195.1H175.91a4.64,4.64,0,0,0-4.64,4.64v49.81a4.642,4.642,0,0,0,4.64,4.64h50.317a4.64,4.64,0,0,0,4.64-4.64V199.74a4.64,4.64,0,0,0-4.64-4.64Z" transform="translate(-166.62 -185.616)" fill="#4da2bf"/>
      <path id="Trazado_925278" data-name="Trazado 925278" d="M179.023,156.647v38.627a2.707,2.707,0,0,0,.557,1.652l-7.364,14.247a4.619,4.619,0,0,1-.947-2.808v-49.81a4.64,4.64,0,0,1,4.64-4.64h5.845A2.732,2.732,0,0,0,179.023,156.647Z" transform="translate(-166.62 -149.264)" fill="#bee2eb"/>
      <path id="Trazado_925279" data-name="Trazado 925279" d="M600.264,158.555v49.81a4.616,4.616,0,0,1-1.029,2.914l-7.365-14.248a2.719,2.719,0,0,0,.641-1.757V156.647a2.731,2.731,0,0,0-2.731-2.732h5.844A4.64,4.64,0,0,1,600.264,158.555Z" transform="translate(-536.017 -149.264)" fill="#bee2eb"/>
      <path id="Trazado_925280" data-name="Trazado 925280" d="M236.961,211.279A4.632,4.632,0,0,1,233.35,213H183.033a4.628,4.628,0,0,1-3.693-1.832l7.364-14.247a2.707,2.707,0,0,1-.557-1.652V156.647a2.732,2.732,0,0,1,2.732-2.732h38.628a2.731,2.731,0,0,1,2.731,2.732v38.627a2.719,2.719,0,0,1-.641,1.757l7.365,14.248Z" transform="translate(-173.742 -149.264)" fill="#87c2d6"/>
      <path id="Trazado_925281" data-name="Trazado 925281" d="M281.43,156.647v38.628A2.732,2.732,0,0,1,278.7,198H240.072a2.732,2.732,0,0,1-2.732-2.731V156.647a2.732,2.732,0,0,1,2.732-2.732H278.7A2.731,2.731,0,0,1,281.43,156.647Z" transform="translate(-224.936 -149.264)" fill="#f4f4f4"/>
      <path id="Trazado_925282" data-name="Trazado 925282" d="M191.249,118.932a4.6,4.6,0,0,1,4.64,4.555V178.3a4.48,4.48,0,0,1-1.029,2.86,4.665,4.665,0,0,1-3.611,1.694H140.932a4.658,4.658,0,0,1-3.693-1.8,4.48,4.48,0,0,1-.947-2.757V123.486a4.6,4.6,0,0,1,4.64-4.555h50.317m0-4.651H140.932a9.259,9.259,0,0,0-9.291,9.205V178.3a9.073,9.073,0,0,0,1.922,5.606,9.309,9.309,0,0,0,7.369,3.6h50.317a9.292,9.292,0,0,0,7.2-3.389,9.172,9.172,0,0,0,2.09-5.816V123.486a9.259,9.259,0,0,0-9.291-9.205Z" transform="translate(-131.641 -114.281)" fill="#0b0f33"/>
      <path id="Trazado_925283" data-name="Trazado 925283" d="M677.947,152.966l.026-.126" transform="translate(-613.837 -148.315)" fill="#fff"/>
      <path id="Trazado_925284" data-name="Trazado 925284" d="M350.708,212.853a1.846,1.846,0,0,0,.018-.244,6.188,6.188,0,0,0-6.17-6.17H330.491a2.611,2.611,0,0,0-2.6,2.6v2.823a2.611,2.611,0,0,0,2.6,2.6h10.053v3.5h-8.876a1.581,1.581,0,0,0-1.576,1.576v5.039a1.581,1.581,0,0,0,1.576,1.576h8.876v3.314H329.606a1.724,1.724,0,0,0-1.719,1.719v5.294a1.724,1.724,0,0,0,1.719,1.719h14.107a6.955,6.955,0,0,0,3.677-1.05,6.884,6.884,0,0,0,3.336-5.884V213.324C350.726,213.166,350.719,213.009,350.708,212.853Z" transform="translate(-304.857 -195.624)" fill="#3d6685"/>
    </g>
  </g>
</svg>
