<svg xmlns="http://www.w3.org/2000/svg" width="85" height="67.734" viewBox="0 0 85 67.734">
  <g id="Grupo_1106438" data-name="Grupo 1106438" transform="translate(-845.238 -1013.154)">
    <g id="XMLID_1190_" transform="translate(845.238 995.889)">
      <path id="XMLID_2518_" d="M88.359,114H13.32A3.32,3.32,0,0,0,10,117.32v31.211a3.32,3.32,0,0,0,3.32,3.32H88.359a3.32,3.32,0,0,0,3.32-3.32V117.32A3.32,3.32,0,0,0,88.359,114Z" transform="translate(-8.34 -95.074)" fill="#f9f9f9"/>
      <g id="XMLID_3077_" transform="translate(9.297 26.895)">
        <g id="XMLID_2588_">
          <path id="XMLID_2597_" d="M232,162h7.969v7.3H232Z" transform="translate(-202.781 -162)" fill="#7466ae"/>
          <path id="XMLID_2596_" d="M320,162h7.969v7.3H320Z" transform="translate(-276.172 -162)" fill="#7466ae"/>
          <path id="XMLID_2595_" d="M408,162h7.969v7.3H408Z" transform="translate(-349.563 -162)" fill="#7466ae"/>
          <path id="XMLID_2594_" d="M170.365,250H180.6v7.3H170.365Z" transform="translate(-151.379 -235.391)" fill="#7466ae"/>
          <path id="XMLID_2593_" d="M280,250h10.232v7.3H280Z" transform="translate(-242.813 -235.391)" fill="#7466ae"/>
          <path id="XMLID_2592_" d="M0,0H7.969V7.3H0Z" transform="translate(22.578 7.305) rotate(180)" fill="#7466ae"/>
          <path id="XMLID_2591_" d="M0,0H7.969V7.3H0Z" transform="translate(7.969 7.305) rotate(180)" fill="#7466ae"/>
        </g>
      </g>
      <path id="XMLID_32_" d="M321.992,219.252a3.328,3.328,0,0,0-3.328,3.328v-7.554a3.328,3.328,0,0,0-6.656,0v-5.7a3.328,3.328,0,1,0-6.656,0v5.7a3.328,3.328,0,0,0-6.656,0v25.386L296.83,232.8a3.4,3.4,0,0,0-6.64,1.468l2,10.121a12.108,12.108,0,0,0,3.293,6.195l4.536,4.561H318.2l3.6-3.616a12.107,12.107,0,0,0,3.522-8.537V222.58a3.328,3.328,0,0,0-3.328-3.328Z" transform="translate(-241.959 -171.801)" fill="#ffbf9e"/>
      <path id="XMLID_33_" d="M42.508,230.257a3.4,3.4,0,0,0-3.894,2.54l-1.867,7.615V215.025a3.328,3.328,0,0,0-6.656,0v-5.7a3.328,3.328,0,1,0-6.656,0v5.7a3.328,3.328,0,0,0-6.656,0v7.554a3.328,3.328,0,0,0-6.656,0v20.408a12.107,12.107,0,0,0,3.522,8.537l3.6,3.616H35.43l4.536-4.561a12.107,12.107,0,0,0,3.293-6.195l2-10.121A3.4,3.4,0,0,0,42.508,230.257Z" transform="translate(-8.443 -171.801)" fill="#ffbf9e"/>
      <g id="XMLID_29_">
        <path id="XMLID_73_" d="M80.02,17.266H68.564a1.66,1.66,0,1,0,0,3.32H80.02a1.662,1.662,0,0,1,1.66,1.66V46.079a4.977,4.977,0,0,0-3.335,0V43.225a4.986,4.986,0,0,0-6.656-4.7v-1A4.966,4.966,0,0,0,71.4,35.86h4.3a1.66,1.66,0,0,0,1.66-1.66v-7.3a1.66,1.66,0,0,0-1.66-1.66H67.734a1.66,1.66,0,0,0-1.66,1.66V32.58a4.989,4.989,0,0,0-3.352,1.943,1.66,1.66,0,0,0,.032-.323v-7.3a1.66,1.66,0,0,0-1.66-1.66H53.125a1.66,1.66,0,0,0-1.66,1.66v7.3a1.66,1.66,0,0,0,1.66,1.66h7.969a1.653,1.653,0,0,0,1.062-.385,4.958,4.958,0,0,0-.444,2.052v1a4.978,4.978,0,0,0-5.331,1.319h-9.9a1.66,1.66,0,0,0-1.66,1.66v7.3a1.66,1.66,0,0,0,1.66,1.66h8.572v4.648H29.943V50.469h8.572a1.66,1.66,0,0,0,1.66-1.66V41.5a1.66,1.66,0,0,0-1.66-1.66h-9.9a4.978,4.978,0,0,0-5.331-1.319v-1a4.958,4.958,0,0,0-.444-2.052,1.653,1.653,0,0,0,1.062.385h7.969a1.66,1.66,0,0,0,1.66-1.66v-7.3a1.66,1.66,0,0,0-1.66-1.66H23.906a1.66,1.66,0,0,0-1.66,1.66v7.3a1.661,1.661,0,0,0,.032.323,4.989,4.989,0,0,0-3.352-1.943V26.895a1.66,1.66,0,0,0-1.66-1.66H9.3a1.66,1.66,0,0,0-1.66,1.66v7.3a1.66,1.66,0,0,0,1.66,1.66h4.3a4.962,4.962,0,0,0-.288,1.668v1a4.986,4.986,0,0,0-6.656,4.7v2.854a4.977,4.977,0,0,0-3.335,0V22.246a1.662,1.662,0,0,1,1.66-1.66H53.623a1.66,1.66,0,1,0,0-3.32H4.98A4.986,4.986,0,0,0,0,22.246V71.187a13.681,13.681,0,0,0,4.005,9.708L7.6,84.51a1.66,1.66,0,0,0,2.354-2.341l-3.6-3.616A10.381,10.381,0,0,1,3.32,71.187V50.779a1.668,1.668,0,0,1,3.335,0V61.024a1.66,1.66,0,1,0,3.32,0v-17.8a1.668,1.668,0,0,1,3.335,0v17.8a1.66,1.66,0,1,0,3.32,0v-23.5a1.668,1.668,0,0,1,3.335,0v23.5a1.66,1.66,0,0,0,3.32,0v-17.8a1.668,1.668,0,0,1,3.335,0V68.611a1.66,1.66,0,0,0,3.273.4l1.867-7.615a1.741,1.741,0,0,1,3.4.751l-2,10.121a10.415,10.415,0,0,1-2.842,5.345l-4.536,4.561a1.66,1.66,0,1,0,2.354,2.341l4.536-4.561a13.725,13.725,0,0,0,3.745-7.044l2-10.121a5.022,5.022,0,0,0-.791-3.84,5.15,5.15,0,0,0-.4-.507H47.769a5.17,5.17,0,0,0-.4.507,5.023,5.023,0,0,0-.791,3.84l2,10.121a13.724,13.724,0,0,0,3.745,7.044l4.536,4.561a1.66,1.66,0,1,0,2.354-2.341l-4.536-4.561a10.414,10.414,0,0,1-2.842-5.345l-2-10.121a1.741,1.741,0,0,1,1.406-2.051,1.746,1.746,0,0,1,1.993,1.3L55.1,69.006a1.66,1.66,0,0,0,3.273-.4V43.225a1.668,1.668,0,0,1,3.335,0v17.8a1.66,1.66,0,1,0,3.32,0v-23.5a1.668,1.668,0,0,1,3.335,0v23.5a1.66,1.66,0,0,0,3.32,0v-17.8a1.668,1.668,0,0,1,3.335,0v17.8a1.66,1.66,0,0,0,3.32,0V50.779a1.668,1.668,0,0,1,3.335,0V71.187a10.381,10.381,0,0,1-3.039,7.366l-3.6,3.616A1.66,1.66,0,1,0,77.4,84.51l3.6-3.616A13.681,13.681,0,0,0,85,71.187V22.246a4.986,4.986,0,0,0-4.98-4.98ZM59.434,32.539H54.785V28.555h4.648ZM25.566,28.555h4.648v3.984H25.566Zm-14.609,0h4.648v3.984H10.957ZM48.145,47.148V43.164h6.912v3.984Zm-18.2-3.984h6.912v3.984H29.943V43.164ZM69.395,28.555h4.648v3.984H69.395Z" fill="#12263f"/>
        <path id="XMLID_1133_" d="M223.66,152a1.66,1.66,0,0,0-1.66,1.66v7.3a1.66,1.66,0,0,0,1.66,1.66h7.969a1.66,1.66,0,0,0,1.66-1.66v-7.3a1.66,1.66,0,0,0-1.66-1.66Zm6.309,7.3H225.32V155.32h4.648Z" transform="translate(-185.145 -126.766)" fill="#12263f"/>
        <path id="XMLID_1664_" d="M359.66,107.32a1.661,1.661,0,1,0-1.174-.486A1.673,1.673,0,0,0,359.66,107.32Z" transform="translate(-298.566 -86.734)" fill="#12263f"/>
      </g>
    </g>
  </g>
</svg>
